# File created by Blade
# Date/Time:  Thu Sep 25 18:58:07 2014
# Frame Rate: 120.000 fps
#------------------------------------------------------
:FULLY-SPECIFIED
:DEGREES
976
root 1.735575 32.847540 1.566234 8.824765 -1.457367 -0.476191
Spine -8.533487 9.593454 -1.450095
Head -10.326669 -4.551967 10.704599
LeftShoulder -14.193452 16.190438 26.568993
LeftArm 17.270905 -26.391341 -35.168161
LeftForeArm 13.105235 0.000000 13.719678
LeftHand -28.747274 -0.000000 -7.120833
LeftHandThumb1 -26.253704 0.000000 33.147579
RightShoulder -17.705717 18.260366 -36.326893
RightArm -13.864190 12.172141 35.669123
RightForeArm -31.252567 -0.000000 14.945751
RightHand -13.886978 -0.000000 12.666733
RightHandThumb1 -24.326973 -0.000000 -32.862282
LeftUpLeg -2.742341 10.163483 3.307634
LeftLeg -1.737200 -0.000000 0.000000
LeftFoot -8.356102 -0.688968 -17.144183
LeftToeBase 8.363740 -0.000000 -0.000000
RightUpLeg -3.795153 -12.213436 -6.317909
RightLeg 0.439034 -0.000000 -0.000000
RightFoot -4.087905 2.590850 4.153113
RightToeBase -3.595423 -0.000000 0.000000
977
root 1.730825 32.846681 1.575343 8.835711 -1.436291 -0.466224
Spine -8.584726 9.537744 -1.455102
Head -10.301056 -4.525057 10.729345
LeftShoulder -14.224778 16.224390 26.548192
LeftArm 17.227809 -26.473462 -35.218999
LeftForeArm 13.111347 -0.000000 13.727171
LeftHand -28.698288 0.000000 -7.130672
LeftHandThumb1 -26.253704 0.000000 33.147579
RightShoulder -17.698564 18.239939 -36.320833
RightArm -13.868192 12.160562 35.696671
RightForeArm -31.223928 -0.000000 14.958146
RightHand -13.909998 -0.000000 12.610639
RightHandThumb1 -24.326973 -0.000000 -32.862282
LeftUpLeg -2.739805 10.130538 3.304408
LeftLeg -1.729377 -0.000000 0.000000
LeftFoot -8.384886 -0.650993 -17.211177
LeftToeBase 8.348856 -0.000000 -0.000000
RightUpLeg -3.775706 -12.177380 -6.320675
RightLeg 0.423299 -0.000000 -0.000000
RightFoot -4.118970 2.534080 4.148758
RightToeBase -3.576162 -0.000000 0.000000
978
root 1.724209 32.845816 1.585471 8.842225 -1.418150 -0.475830
Spine -8.633626 9.500682 -1.437199
Head -10.272647 -4.527266 10.726354
LeftShoulder -14.257760 16.292730 26.520106
LeftArm 17.218773 -26.580416 -35.294859
LeftForeArm 13.129881 -0.000000 13.758829
LeftHand -28.630564 0.000000 -7.078054
LeftHandThumb1 -26.253704 0.000000 33.147579
RightShoulder -17.685110 18.214812 -36.321106
RightArm -13.902506 12.086685 35.714564
RightForeArm -31.143008 -0.000000 15.005548
RightHand -13.890950 -0.000000 12.633701
RightHandThumb1 -24.326973 -0.000000 -32.862282
LeftUpLeg -2.725951 10.124627 3.334670
LeftLeg -1.746902 -0.000000 0.000000
LeftFoot -8.377448 -0.693876 -17.180936
LeftToeBase 8.441616 -0.000000 -0.000000
RightUpLeg -3.745209 -12.134927 -6.303203
RightLeg 0.392337 -0.000000 -0.000000
RightFoot -4.116920 2.483144 4.153887
RightToeBase -3.635543 -0.000000 0.000000
979
root 1.720388 32.844933 1.593696 8.863937 -1.391059 -0.473976
Spine -8.698823 9.470371 -1.432791
Head -10.243418 -4.548302 10.728372
LeftShoulder -14.284521 16.334371 26.488951
LeftArm 17.225313 -26.644090 -35.341101
LeftForeArm 13.134152 -0.000000 13.780512
LeftHand -28.658225 -0.000000 -7.078824
LeftHandThumb1 -26.253704 0.000000 33.147579
RightShoulder -17.703320 18.176288 -36.323329
RightArm -13.898195 12.067297 35.724755
RightForeArm -31.140433 -0.000000 15.023992
RightHand -13.894342 -0.000000 12.638537
RightHandThumb1 -24.326973 -0.000000 -32.862282
LeftUpLeg -2.735295 10.080929 3.343476
LeftLeg -1.750517 -0.000000 0.000000
LeftFoot -8.382775 -0.680901 -17.163171
LeftToeBase 8.381991 -0.000000 -0.000000
RightUpLeg -3.735277 -12.111699 -6.296258
RightLeg 0.370382 -0.000000 -0.000000
RightFoot -4.130983 2.436534 4.138234
RightToeBase -3.588448 -0.000000 0.000000
980
root 1.712907 32.844054 1.609302 8.838739 -1.415871 -0.473069
Spine -8.727949 9.485328 -1.456501
Head -10.210642 -4.568330 10.790516
LeftShoulder -14.297421 16.328478 26.490393
LeftArm 17.178581 -26.684771 -35.352621
LeftForeArm 13.172522 -0.000000 13.807806
LeftHand -28.688127 -0.000000 -7.053725
LeftHandThumb1 -26.253704 0.000000 33.147579
RightShoulder -17.710759 18.162957 -36.315436
RightArm -13.926272 12.035263 35.738374
RightForeArm -31.142813 -0.000000 15.042705
RightHand -13.885678 -0.000000 12.614069
RightHandThumb1 -24.326973 -0.000000 -32.862282
LeftUpLeg -2.659944 10.143109 3.360752
LeftLeg -1.774282 -0.000000 0.000000
LeftFoot -8.373796 -0.771754 -17.173181
LeftToeBase 8.510588 -0.000000 -0.000000
RightUpLeg -3.667503 -12.036909 -6.296342
RightLeg 0.330542 -0.000000 -0.000000
RightFoot -4.142909 2.362392 4.122928
RightToeBase -3.582704 -0.000000 0.000000
